<?xml version="1.0" encoding="utf-8"?><svg viewBox="0 0 576 512" xmlns="http://www.w3.org/2000/svg" xmlns:xlink="http://www.w3.org/1999/xlink"><style>:root>svg{display:none}:root>svg:target{display:block}</style><svg viewBox="0 0 512 512" id="address-book" xmlns="http://www.w3.org/2000/svg"><!--! Font Awesome Free 6.1.1 by @fontawesome - https://fontawesome.com License - https://fontawesome.com/license/free (Icons: CC BY 4.0, Fonts: SIL OFL 1.1, Code: MIT License) Copyright 2022 Fonticons, Inc.--><path d="M384 0H96C60.65 0 32 28.65 32 64v384c0 35.35 28.65 64 64 64h288c35.35 0 64-28.65 64-64V64c0-35.35-28.7-64-64-64zM240 128c35.35 0 64 28.65 64 64s-28.65 64-64 64c-35.34 0-64-28.65-64-64s28.7-64 64-64zm96 256H144c-8.8 0-16-7.2-16-16 0-44.2 35.8-80 80-80h64c44.18 0 80 35.82 80 80 0 8.8-7.2 16-16 16zM496 64h-16v96h16c8.8 0 16-7.2 16-16V80c0-8.84-7.2-16-16-16zm0 128h-16v96h16c8.8 0 16-7.2 16-16v-64c0-8.8-7.2-16-16-16zm0 128h-16v96h16c8.836 0 16-7.164 16-16v-64c0-8.8-7.2-16-16-16z"/></svg><svg viewBox="0 0 576 512" id="anchor" xmlns="http://www.w3.org/2000/svg"><!--! Font Awesome Free 6.1.1 by @fontawesome - https://fontawesome.com License - https://fontawesome.com/license/free (Icons: CC BY 4.0, Fonts: SIL OFL 1.1, Code: MIT License) Copyright 2022 Fonticons, Inc.--><path d="M352 176c17.7 0 32 14.3 32 32s-14.3 32-32 32h-32v208h48c53 0 96-43 96-96v-6.1l-7.9 6.2c-8.5 10.2-23.7 10.2-33.1 0-9.3-8.5-9.3-23.7 0-33.1l56-56c9.4-9.3 24.6-9.3 33.1 0l56 56c10.2 9.4 10.2 24.6 0 33.1-8.5 10.2-23.7 10.2-33.1 0l-7-6.2v6.1c0 88.4-71.6 160-160 160H208c-88.4 0-160-71.6-160-160v-6.1l-7.03 6.2c-9.37 10.2-24.57 10.2-33.941 0-9.372-8.5-9.372-23.7 0-33.1l56.001-56c9.37-9.3 24.57-9.3 33.94 0l55.13 56c10.2 9.4 10.2 24.6 0 33.1-8.5 10.2-23.7 10.2-33.1 0l-7-6.2v6.1c0 53 42.1 96 96 96h48V240h-32c-17.7 0-32-14.3-32-32s14.3-32 32-32h10.9C209 158.8 192 129.4 192 96c0-53.02 42.1-96 96-96 53 0 96 42.98 96 96 0 33.4-17.9 62.8-42.9 80H352zm-64-48c17.7 0 32-14.3 32-32 0-17.67-14.3-32-32-32s-32 14.33-32 32c0 17.7 14.3 32 32 32z"/></svg><svg viewBox="0 0 384 512" id="angle-down" xmlns="http://www.w3.org/2000/svg"><!--! Font Awesome Free 6.1.1 by @fontawesome - https://fontawesome.com License - https://fontawesome.com/license/free (Icons: CC BY 4.0, Fonts: SIL OFL 1.1, Code: MIT License) Copyright 2022 Fonticons, Inc.--><path d="M192 384c-8.188 0-16.38-3.125-22.62-9.375l-160-160c-12.5-12.5-12.5-32.75 0-45.25s32.75-12.5 45.25 0L192 306.8l137.4-137.4c12.5-12.5 32.75-12.5 45.25 0s12.5 32.75 0 45.25l-160 160C208.4 380.9 200.2 384 192 384z"/></svg></svg>